<svg t="1730793942303" class="icon" viewBox="0 0 1024 1024" version="1.1" xmlns="http://www.w3.org/2000/svg" p-id="12354" width="125" height="125"><path d="M666.248533 287.010133c-19.3536 13.909333-38.058667 25.770667-58.743466 42.734934-15.684267 12.9024-44.049067 30.8736-45.397334 54.613333-2.321067 36.3008 52.736 70.212267 23.722667 116.343467-11.025067 17.646933-30.037333 25.105067-53.76 35.959466-2.986667-5.4272 6.3488-9.8304 10.018133-15.2576 36.7104-53.930667-38.058667-71.918933-28.706133-138.410666 9.0112-64.768 83.456-87.159467 152.866133-95.982934z" fill="#B91D0A" p-id="12355"></path><path d="M432.298667 509.184c-17.373867 8.1408-46.421333 9.847467-58.760534 27.477333 12.680533 9.8304 31.368533 9.506133 48.725334 10.171734 71.099733 3.413333 159.880533-3.037867 220.296533-13.568 1.9968 4.420267-8.362667 12.219733-15.018667 16.964266-38.058667 28.501333-156.8768 36.3008-238.984533 30.8736-27.357867-2.048-90.112-9.1648-90.794667-34.269866-0.989867-30.173867 76.117333-33.570133 107.485867-35.9424 6.3488-0.682667 18.0224-3.072 27.0336-1.706667z m-35.396267 76.663467c8.021333 1.024-5.666133 5.768533-3.328 11.8784 29.0304 29.166933 118.818133 20.6848 163.208533 11.861333 9.335467-2.030933 18.346667-7.458133 25.361067-6.775467 16.6912 1.706667 27.6992 21.367467 42.052267 24.064-51.063467 23.415467-149.845333 34.6112-221.952 20.360534-18.688-3.720533-51.063467-13.909333-52.053334-29.166934-1.6896-20.343467 32.034133-28.842667 46.711467-32.221866z m22.016 70.212266c5.358933 1.706667-1.979733 4.744533-1.655467 6.792534 15.36 27.136 91.118933 17.288533 129.501867 8.482133 7.68-2.048 15.36-7.4752 22.016-6.792533 19.370667 1.365333 27.050667 22.050133 43.741867 25.770666-53.742933 33.245867-183.569067 46.813867-237.312 5.102934-2.679467-30.549333 21.367467-33.928533 43.7248-39.355734z" fill="#2365C4" p-id="12356"></path><path d="M370.210133 707.2768c-16.042667 4.078933-57.412267-1.706667-58.743466 20.360533-0.682667 8.482133 14.011733 18.653867 23.688533 22.391467 54.7328 21.026133 164.881067 24.405333 255.658667 13.550933 42.069333-5.085867 121.173333-19.319467 111.1552-63.0784 12.680533 1.706667 24.029867 9.8304 25.361066 22.3744 5.0176 47.1552-101.461333 67.1744-144.520533 71.918934-93.781333 10.513067-210.602667 8.482133-282.692267-16.964267-23.381333-8.1408-51.746133-23.3984-50.397866-46.1312 1.3312-38.656 92.1088-49.186133 120.490666-24.405333z" fill="#2365C4" p-id="12357"></path><path d="M513.058133 849.066667c-63.0784-7.1168-123.835733-16.2816-174.8992-39.355734 133.8368 32.5632 328.7552 30.208 422.229334-39.338666 5.000533-3.7376 9.659733-11.195733 16.674133-10.171734-23.688533 71.901867-114.141867 76.663467-191.573333 88.866134h-72.430934z" fill="#2365C4" p-id="12358"></path><path d="M556.782933 170.666667c11.6736 11.195733 20.0192 32.221867 20.0192 54.613333 0 66.1504-69.085867 104.465067-102.468266 148.565333-7.338667 9.8304-17.015467 25.088-16.6912 41.045334 0.341333 35.959467 37.051733 76.322133 50.397866 105.8304-23.688533-15.598933-52.053333-36.642133-72.413866-61.3888-20.036267-24.763733-40.3968-64.4608-22.033067-99.054934 27.6992-51.882667 110.472533-82.773333 139.52-138.3936 7.338667-13.568 13.0048-34.2528 3.669333-51.217066z" fill="#B91D0A" p-id="12359"></path><path d="M655.906133 526.148267c34.7136-30.190933 93.457067-18.312533 95.7952 32.5632 3.003733 59.357867-61.098667 92.945067-107.810133 95.658666 21.367467-20.701867 78.4384-54.272 67.413333-102.4512-4.334933-19.6608-28.023467-31.5392-55.3984-25.770666z" fill="#2365C4" p-id="12360"></path></svg>